<?xml version="1.0" encoding="iso-8859-1"?>
<!-- Uploaded to: SVG Repo, www.svgrepo.com, Generator: SVG Repo Mixer Tools -->
<svg fill="#000000" height="800px" width="800px" version="1.1" id="Layer_1" xmlns="http://www.w3.org/2000/svg" xmlns:xlink="http://www.w3.org/1999/xlink" 
	 viewBox="0 0 512 512" xml:space="preserve">
<g>
	<g>
		<path d="M437.637,75.614c-0.183-0.228-0.378-0.449-0.589-0.659c-0.211-0.21-0.432-0.406-0.659-0.589
			C388.107,26.407,324.085,0,256,0C187.62,0,123.332,26.628,74.981,74.981C26.628,123.332,0,187.62,0,256
			s26.628,132.668,74.981,181.019C123.332,485.372,187.62,512,256,512s132.667-26.628,181.019-74.981
			C485.372,388.668,512,324.38,512,256C512,187.915,485.593,123.893,437.637,75.614z M264.171,16.495
			c59.924,2.019,114.333,26.137,155.329,64.451l-35.433,35.433c-3.191,3.191-3.191,8.364,0,11.554
			c1.596,1.596,3.686,2.393,5.778,2.393c2.091,0,4.182-0.797,5.778-2.393l35.433-35.432c10.536,11.274,19.999,23.562,28.224,36.702
			l-115.688,66.792c-2.165-3.146-4.49-6.171-6.97-9.061l35.892-35.892c3.191-3.191,3.191-8.364,0-11.554
			c-3.192-3.191-8.364-3.191-11.555,0l-35.891,35.891c-16.645-14.28-37.743-23.511-60.898-25.28V16.495z M16.34,256
			c0-129.413,103.11-235.181,231.489-239.505v133.604c-54.763,4.185-98.043,50.084-98.043,105.901
			c0,16.418,3.745,31.977,10.425,45.869L44.525,368.661C26.551,335.056,16.34,296.701,16.34,256z M247.83,495.505
			c-82.222-2.769-154.067-47.15-195.108-112.709l115.688-66.792c17.712,25.773,46.486,43.381,79.42,45.897V495.505z M264.17,495.505
			V361.901c19.223-1.462,37.522-8.08,53.35-19.361c3.674-2.619,4.53-7.72,1.911-11.395c-2.619-3.673-7.718-4.532-11.396-1.911
			c-15.272,10.884-33.266,16.638-52.036,16.638c-49.556,0-89.872-40.316-89.872-89.872s40.316-89.872,89.872-89.872
			c49.555,0,89.872,40.316,89.872,89.872c0,18.771-5.754,36.765-16.639,52.036c-2.619,3.674-1.764,8.777,1.911,11.396
			c3.676,2.619,8.777,1.763,11.396-1.911c12.87-18.057,19.673-39.33,19.673-61.521c0-16.418-3.745-31.977-10.425-45.869
			l115.687-66.792c17.974,33.605,28.185,71.96,28.185,112.661C495.66,385.413,392.549,491.181,264.17,495.505z"/>
	</g>
</g>
<g>
	<g>
		<path d="M256,206.979c-27.03,0-49.021,21.991-49.021,49.021S228.97,305.021,256,305.021S305.021,283.03,305.021,256
			S283.03,206.979,256,206.979z M256,288.681c-18.02,0-32.681-14.661-32.681-32.681S237.98,223.319,256,223.319
			S288.681,237.98,288.681,256S274.02,288.681,256,288.681z"/>
	</g>
</g>
</svg>